Coordinates
version=1
nRows=11
nColumns=40
inDegrees=yes

Units are S.I. units (second, meters, Newtons, ...)
If the header above contains a line with 'inDegrees', this indicates whether rotational values are in degrees (yes) or radians (no).

endheader
time	pelvis_tilt	pelvis_list	pelvis_rotation	pelvis_tx	pelvis_ty	pelvis_tz	hip_flexion_r	hip_adduction_r	hip_rotation_r	knee_angle_r	knee_angle_r_beta	ankle_angle_r	subtalar_angle_r	mtp_angle_r	hip_flexion_l	hip_adduction_l	hip_rotation_l	knee_angle_l	knee_angle_l_beta	ankle_angle_l	subtalar_angle_l	mtp_angle_l	lumbar_extension	lumbar_bending	lumbar_rotation	arm_flex_r	arm_add_r	arm_rot_r	elbow_flex_r	pro_sup_r	wrist_flex_r	wrist_dev_r	arm_flex_l	arm_add_l	arm_rot_l	elbow_flex_l	pro_sup_l	wrist_flex_l	wrist_dev_l
      4.20000000	    -39.08292819	     10.44273302	     -1.13238084	     -0.30399284	      0.81995023	     -1.03912746	     26.67152794	     -1.85787988	     -7.36723694	    106.18408034	      1.85326182	    -19.52162168	      0.00000000	      0.00000000	     83.87563449	      7.91590471	    -12.56051233	     72.16512835	      1.25951909	     24.21197131	      0.00000000	      0.00000000	      6.92200956	    -12.88837219	      4.33605830	     89.96127978	    -13.82632062	     13.18140113	     49.33830381	     85.25745123	      0.00000000	      0.00000000	     89.96320001	    -20.59114164	     11.03792770	     52.47084397	     85.55201105	      0.00000000	      0.00000000
      4.20500000	    -39.07771289	     10.39317479	     -1.09718406	     -0.30398289	      0.82132533	     -1.03925088	     26.70302963	     -1.82831998	     -7.53271021	    106.07249786	      1.85131433	    -19.48671770	      0.00000000	      0.00000000	     83.71030363	      7.89511274	    -12.56342543	     71.91009278	      1.25506788	     24.09543533	      0.00000000	      0.00000000	      6.96975269	    -12.84486770	      4.25626135	     89.96124439	    -13.83769622	     13.21262187	     49.36748406	     85.26986752	      0.00000000	      0.00000000	     89.96320216	    -20.56213661	     11.05451894	     52.44539986	     85.56731374	      0.00000000	      0.00000000
      4.21000000	    -38.99808119	     10.37467855	     -1.12771563	     -0.30379712	      0.82278548	     -1.03919837	     26.65397133	     -1.81202045	     -7.63792654	    105.94134200	      1.84902523	    -19.46421175	      0.00000000	      0.00000000	     83.46488752	      7.87023646	    -12.52039995	     71.64957135	      1.25052093	     23.93658480	      0.00000000	      0.00000000	      6.96030373	    -12.83381873	      4.25615436	     89.96105520	    -13.88251347	     13.28687407	     49.25304004	     85.28395028	      0.00000000	      0.00000000	     89.96304723	    -20.54487763	     11.08133904	     52.40629111	     85.58264138	      0.00000000	      0.00000000
      4.21500000	    -38.92041137	     10.37736205	     -1.15882152	     -0.30363606	      0.82424905	     -1.03915728	     26.62010370	     -1.84195752	     -7.76897414	    105.87178390	      1.84781121	    -19.44791485	      0.00000000	      0.00000000	     83.21077185	      7.79657908	    -12.57164239	     71.40584722	      1.24626714	     23.80129792	      0.00000000	      0.00000000	      6.92910983	    -12.83523390	      4.22181804	     89.96079795	    -13.88876268	     13.38265098	     49.14620379	     85.30038120	      0.00000000	      0.00000000	     89.96310190	    -20.56266860	     11.07596864	     52.39144586	     85.59153511	      0.00000000	      0.00000000
      4.22000000	    -38.80726373	     10.40616350	     -1.18859041	     -0.30333607	      0.82592074	     -1.03912593	     26.53618479	     -1.87127541	     -7.84184825	    105.71115633	      1.84500773	    -19.43860881	      0.00000000	      0.00000000	     82.89909078	      7.76590015	    -12.63298473	     71.13276165	      1.24150090	     23.66530566	      0.00000000	      0.00000000	      6.88483779	    -12.88720946	      4.18983803	     89.96071283	    -13.90901246	     13.41918358	     49.13328124	     85.30787786	      0.00000000	      0.00000000	     89.96295983	    -20.53384268	     11.12449611	     52.32898656	     85.60449055	      0.00000000	      0.00000000
      4.22500000	    -38.76915029	     10.33097462	     -1.15459829	     -0.30330663	      0.82727126	     -1.03914771	     26.54201795	     -1.84181509	     -8.05096891	    105.64598596	      1.84387030	    -19.42932152	      0.00000000	      0.00000000	     82.70738730	      7.71385841	    -12.62309280	     70.90121701	      1.23745968	     23.54241678	      0.00000000	      0.00000000	      6.90028452	    -12.82591078	      4.10461020	     89.96057498	    -13.94509340	     13.47995251	     49.03885654	     85.31901235	      0.00000000	      0.00000000	     89.96294521	    -20.49989645	     11.15064708	     52.30455404	     85.61430818	      0.00000000	      0.00000000
      4.23000000	    -38.65725133	     10.33028006	     -1.20388558	     -0.30299597	      0.82897311	     -1.03903999	     26.46626905	     -1.83912630	     -8.13171044	    105.51147741	      1.84152268	    -19.39719234	      0.00000000	      0.00000000	     82.38143787	      7.64863388	    -12.65123122	     70.60036090	      1.23220875	     23.38278950	      0.00000000	      0.00000000	      6.85139553	    -12.82838264	      4.09995361	     89.96038819	    -13.96299547	     13.57401691	     48.91563987	     85.33634656	      0.00000000	      0.00000000	     89.96279513	    -20.50417874	     11.21338253	     52.25059140	     85.62860904	      0.00000000	      0.00000000
      4.23500000	    -38.58709080	     10.30882269	     -1.19700627	     -0.30286443	      0.83045210	     -1.03901283	     26.44846670	     -1.84284008	     -8.27376706	    105.43803344	      1.84024084	    -19.37321273	      0.00000000	      0.00000000	     82.15553561	      7.59479109	    -12.69901563	     70.36687619	      1.22813367	     23.25489310	      0.00000000	      0.00000000	      6.83674578	    -12.84002143	      4.02129799	     89.96021525	    -14.00697967	     13.62868838	     48.85276782	     85.34772456	      0.00000000	      0.00000000	     89.96279388	    -20.49456142	     11.25254631	     52.21680852	     85.63737535	      0.00000000	      0.00000000
      4.24000000	    -38.46619432	     10.30207598	     -1.12714813	     -0.30262397	      0.83214884	     -1.03919886	     26.34288837	     -1.96622666	     -8.51487811	    105.31514796	      1.83809608	    -19.36342326	      0.00000000	      0.00000000	     81.83820010	      7.67380190	    -12.68870357	     70.03892941	      1.22240992	     23.00770982	      0.00000000	      0.00000000	      6.75471809	    -12.84545534	      3.86088578	     89.96017051	    -14.00150899	     13.75813062	     48.75127422	     85.37173860	      0.00000000	      0.00000000	     89.96280345	    -20.50478545	     11.32564506	     52.10866170	     85.65415184	      0.00000000	      0.00000000
      4.24500000	    -38.43820299	     10.24843001	     -1.13745872	     -0.30251122	      0.83371927	     -1.03911110	     26.37773740	     -1.94601195	     -8.68610930	    105.22880938	      1.83658919	    -19.35202565	      0.00000000	      0.00000000	     81.63955162	      7.56855947	    -12.73554090	     69.79084694	      1.21808007	     22.95739670	      0.00000000	      0.00000000	      6.78363213	    -12.80722863	      3.82491809	     89.95991513	    -14.02566452	     13.79178413	     48.70531037	     85.37609115	      0.00000000	      0.00000000	     89.96260981	    -20.49159573	     11.35748832	     52.12218321	     85.65937520	      0.00000000	      0.00000000
      4.25000000	    -38.36973203	     10.17990853	     -1.10043589	     -0.30239869	      0.83529939	     -1.03909615	     26.36746666	     -1.90263013	     -8.87124202	    105.14601187	      1.83514410	    -19.32995385	      0.00000000	      0.00000000	     81.38110693	      7.52760095	    -12.75223808	     69.50227404	      1.21304352	     22.82056323	      0.00000000	      0.00000000	      6.78179741	    -12.77181601	      3.72625800	     89.95993081	    -14.07140980	     13.78064670	     48.68568974	     85.37748428	      0.00000000	      0.00000000	     89.96254156	    -20.44848974	     11.43472267	     52.05816957	     85.66829403	      0.00000000	      0.00000000
